<?xml version="1.0" encoding="iso-8859-1"?>
<!-- Generator: Adobe Illustrator 19.0.0, SVG Export Plug-In . SVG Version: 6.00 Build 0)  -->
<svg version="1.1" id="Capa_1" xmlns="http://www.w3.org/2000/svg" xmlns:xlink="http://www.w3.org/1999/xlink" x="0px" y="0px"
	 viewBox="0 0 512 512" style="enable-background:new 0 0 512 512;" xml:space="preserve">
<path style="fill:#72BE4F;" d="M189.153,19.821c5.004-3.003,10.009-6.005,15.013-8.007c2.002,5.004,5.004,10.009,7.006,15.013
	c-11.009,6.005-22.019,11.009-32.027,18.015C31.892,134.246,54.477,235.925,118.093,245.013
	c43.341,8.126,96.55-19.775,134.114-42.036c28.47-17.794,54.046-34.799,54.046-55.047c0-12.886-14.898-19.035-27.023-17.015
	c-39.158,9.79-91.607,64.055-135.115,64.055c-19.83,0-34.255-15.208-32.027-33.028c2.777-33.32,34.182-58.349,63.054-75.064
	c46.727-30.664,108.793-57.814,164.14-55.047c138.185,4.765,220.949,177.355-18.015,328.28
	c-27.131,17.135-70.848,35.96-80.068,39.033c-4.003-18.015-10.009-36.031-14.012-54.046c43.751-20.588,56.831-23.148,105.09-60.051
	c40.536-32.429,79.534-70.787,86.073-123.105c1.001-12.01,1.001-23.02-2.002-35.03c-16.283-55.828-91.628-113.397-233.199-19.016
	c-14.738,8.597-39.033,25.952-39.033,43.037c0,4.003,3.003,9.008,7.006,10.009c21.761,9.326,70.138-39.603,118.101-56.048
	c37.594-13.268,75.433,0.844,82.07,34.029c1.001,9.008,1.001,18.015-2.002,26.022c-10.715,27.859-36.579,48.036-63.054,65.056
	c-27.663,15.215-55.791,36.911-117.1,53.045c-41.836,11.41-95.173,5.248-117.1-32.027c-9.008-14.012-13.011-31.026-13.011-47.04
	c1.001-19.016,5.004-38.032,13.011-55.047c14.012-29.025,35.03-55.047,60.051-76.065c24.021-21.018,50.043-39.033,78.067-54.046
	L189.153,19.821z"/>
<g>
	<path style="fill:#66AF3F;" d="M178.564,155.203L178.564,155.203c-8.168,4.256-19.034,9.342-27.443,5.738
		c-2.67-0.667-4.89-3.118-6.075-5.863l0,0c0,0,5.509,15.756,21.918,17.727c4.104,1.009,8.46,0.288,12.703-1.07h0.001
		c25.772-8.249,64.54-42.524,103.082-55.739c21.527-7.598,43.122-6.203,58.906,2.595c-0.001-0.001-0.001-0.002-0.002-0.002
		c-5.745-6.887-13.351-11.807-21.79-14.845c-0.07-0.025-0.139-0.053-0.209-0.078C269.858,85.968,218.291,135.34,178.564,155.203z"/>
	<path style="fill:#66AF3F;" d="M112.087,161.942c-1.655,13.239,5.885,25.029,18,30.22c-3.625-5.448-5.353-12.076-4.472-19.116
		c2.777-33.32,34.182-58.349,63.054-75.064c46.727-30.664,108.793-57.814,164.14-55.047c31.27,1.078,59.701,10.751,82.209,26.821
		c-24.07-22.669-57.815-36.618-95.737-37.925c-55.347-2.767-117.414,24.383-164.14,55.047
		C146.27,103.593,114.864,128.621,112.087,161.942z"/>
	<path style="fill:#66AF3F;" d="M265.735,214.081c27.043-16.902,51.458-33.095,53.839-52.029c0.441-1.812,0.537-3.628,0.207-5.44
		c-4.565-25.039-30.144-25.511-30.144-25.511c8.868,1.748,16.617,7.536,16.617,16.829c0,20.248-25.576,37.253-54.046,55.047
		c-43.223,25.613-111.946,59.934-155.239,34.814l-0.002-0.001c8.652,9.845,20.66,16.328,34.655,18.327
		C174.961,264.243,228.17,236.341,265.735,214.081z"/>
	<path style="fill:#66AF3F;" d="M52.553,215.082c1.001-19.016,5.004-38.033,13.011-55.047c14.012-29.025,35.03-55.047,60.051-76.065
		c0.341-0.298,0.686-0.59,1.028-0.887c19.049-16.964,46.953-37.042,77.039-53.159l-1.001,1.001c2.737-1.643,5.475-3.279,8.212-4.758
		c-1.994-4.784-4.813-9.569-6.727-14.353c-5.004,2.002-10.009,5.004-15.013,8.007l1.001-1.001
		c-28.024,15.013-54.046,33.028-78.067,54.046c-25.021,21.018-46.039,47.04-60.051,76.065c-8.007,17.015-12.01,36.031-13.011,55.047
		c0,16.014,4.003,33.028,13.011,47.04c5.604,9.527,13.268,17.009,22.259,22.697c-3.274-3.475-6.218-7.321-8.731-11.593
		C56.556,248.11,52.553,231.095,52.553,215.082z"/>
	<path style="fill:#66AF3F;" d="M391.961,86.143c12.106,11.968,20.202,26.423,24.386,40.769c3.002,12.01,3.002,23.02,2.002,35.03
		c-6.54,52.318-45.538,90.676-86.073,123.105c-48.258,36.904-61.339,39.463-105.09,60.051c1.127,5.07,2.419,10.141,3.774,15.211
		l18.693-8.266h0.001c36.85-16.965,51.349-21.633,96.15-55.893c40.536-32.429,79.534-70.787,86.073-123.105
		c1.001-12.01,1.001-23.02-2.002-35.03C424.287,118.86,411.745,99.5,391.961,86.143z"/>
</g>
<g>
	<path style="fill:#C2C2C4;" d="M112.501,450.511c1.129,0,2.044-0.915,2.044-2.044v-7.081c0-1.129-0.915-2.044-2.044-2.044H77.098
		c-1.129,0-2.044,0.915-2.044,2.044v54.284c0,1.129,0.915,2.044,2.044,2.044h36.347c1.129,0,2.044-0.915,2.044-2.044v-7.081
		c0-1.129-0.915-2.044-2.044-2.044H86.677V473.64h23.464c1.129,0,2.044-0.915,2.044-2.044v-7.081c0-1.129-0.915-2.044-2.044-2.044
		H86.695V450.51h25.806V450.511z"/>
	<path style="fill:#C2C2C4;" d="M411.772,497.715h7.553c1.129,0,2.044-0.915,2.044-2.044v-45.16h15.421
		c1.129,0,2.044-0.915,2.044-2.044v-7.081c0-1.129-0.915-2.044-2.044-2.044h-42.483c-1.129,0-2.044,0.915-2.044,2.044v7.081
		c0,1.129,0.915,2.044,2.044,2.044h15.421v45.16C409.728,496.8,410.643,497.715,411.772,497.715z"/>
	<path style="fill:#C2C2C4;" d="M471.565,441.386v54.284c0,1.129,0.915,2.044,2.044,2.044h36.347c1.129,0,2.044-0.915,2.044-2.044
		v-7.081c0-1.129-0.915-2.044-2.044-2.044h-26.75V473.64h23.918c1.129,0,2.044-0.915,2.044-2.044v-7.081
		c0-1.129-0.915-2.044-2.044-2.044h-23.918V450.51h25.334c1.129,0,2.044-0.915,2.044-2.044v-7.081c0-1.129-0.915-2.044-2.044-2.044
		h-34.931C472.48,439.342,471.565,440.258,471.565,441.386z"/>
	<path style="fill:#C2C2C4;" d="M177.17,439.342c-6.807,0-7.822-0.342-8.493,1.251c-22.263,52.87-24.886,54.002-23.421,56.208
		c0.379,0.57,1.018,0.913,1.703,0.913c8.87,0,9.666,0.357,10.364-1.214c1.738-3.91,3.057-8.129,4.671-12.004h22.81
		c7.109,16.296,3.488,13.217,15.495,13.217c0.682,0,1.318-0.34,1.698-0.906c0.749-1.117,1.525,0.626-13.459-34.07
		C178.342,439.131,179.025,439.342,177.17,439.342z M166.526,473.801c2.254-5.528,4.657-11.544,7.233-17.349
		c2.256,5.573,4.63,11.59,6.973,17.349H166.526z"/>
	<path style="fill:#C2C2C4;" d="M348.519,439.342c-6.221,0-7.302-0.355-8.003,1.209c-7.979,17.837-16.106,36.473-24.074,54.284
		c-0.604,1.35,0.385,2.879,1.866,2.879c12.9,0,8.381,2.761,15.035-13.217h22.798c6.739,16.125,3.448,13.217,15.506,13.217
		c1.451,0,2.442-1.476,1.891-2.82c-4.454-10.855-9.13-21.684-13.653-32.156C349.692,439.131,350.375,439.342,348.519,439.342z
		 M337.876,473.801c2.254-5.528,4.657-11.544,7.233-17.349c2.256,5.573,4.63,11.59,6.973,17.349H337.876z"/>
	<path style="fill:#C2C2C4;" d="M282.434,463.888H263.08c-1.129,0-2.044,0.915-2.044,2.044c0,10.937-1.956,9.125,11.801,9.125
		v11.706c-4.056,1.582-8.726,2.132-14.223,1.685c-14.899-2.554-21.262-22.018-9.194-34.288c6.425-6.425,18.331-6.183,25.479,0.518
		c0.804,0.754,2.063,0.736,2.843-0.046c1.95-1.95,3.368-3.841,5.192-5.664c0.761-0.761,0.802-1.982,0.093-2.792
		c-6.824-7.799-24.118-11.514-36.929-3.666l0,0c-7.954,4.396-14.814,14.638-14.858,26.518c0.008,13.773,8.986,25.441,21.405,29.499
		c8.194,2.234,19.609,1.38,28.814-2.917c1.128-0.564,3.017-1.509,3.017-3.715v-25.962
		C284.478,464.804,283.563,463.888,282.434,463.888z"/>
	<path style="fill:#C2C2C4;" d="M14.05,459.019c-1.637-2.372-0.96-6.18,1.412-7.914c4.495-2.821,11.247-1.715,14.195,2.34
		c0.686,0.942,2.021,1.123,2.93,0.394c2.451-1.961,4.41-3.92,6.305-5.815c0.797-0.796,0.797-2.094,0-2.891
		c-0.35-0.35-0.724-0.708-1.111-1.068c-1.514-1.381-3.086-2.431-4.679-3.225l0.006-0.002c0,0-9.998-5.775-23.045,0.591
		c-0.847,0.479-12.924,7.654-6.357,23.187c6.184,13.712,26.027,8.632,24.834,18.456c-0.844,6.943-13.305,8.813-18.679,1.05
		c-0.66-0.954-1.979-1.167-2.907-0.472c-2.584,1.939-4.723,3.75-6.356,5.383c-0.701,0.702-0.797,1.805-0.229,2.617
		c9.675,13.822,37.772,10.543,39.581-7.555C42.351,462.492,19.788,465.749,14.05,459.019z"/>
</g>
<g>
</g>
<g>
</g>
<g>
</g>
<g>
</g>
<g>
</g>
<g>
</g>
<g>
</g>
<g>
</g>
<g>
</g>
<g>
</g>
<g>
</g>
<g>
</g>
<g>
</g>
<g>
</g>
<g>
</g>
</svg>
